# xmcd
#
# Track frame offsets:
#	150
#	13069
#	23985
#	39934
#	57937
#	68300
#	91054
#	106825
#	119163
#	131530
#	148469
#	165943
#	178964
#	197918
#	225729
#	240855
#	263898
#	278953
#	303299
#	317662
#	332137
#
# Disc length: 4706 seconds
#
# Revision: 0
# Processed by: cddbd v1.5.1PL0 Copyright (c) Steve Scherf et al.
# Submitted via: audiograbber 1.83.01
#
DISCID=23126015
DTITLE=Steve Ray Vaughan  - The Collection
DYEAR=1900
DGENRE=BLUES ROCK
TTITLE0=Look In Out The Window
TTITLE1=The House Is Rockin
TTITLE2=Excited
TTITLE3=Change It
TTITLE4=Boot Hill
TTITLE5=Dirty Pool
TTITLE6=Empty Arms
TTITLE7=Let Me Love You Baby
TTITLE8=Honey Bee
TTITLE9=I´m Crying
TTITLE10=Live Another Day
TTITLE11=Tell Me
TTITLE12=Crossfire
TTITLE13=Aint Gone ´n´ Give Up On Love
TTITLE14=Love Me Darlin
TTITLE15=Pride and Joy
TTITLE16=Slide Thing
TTITLE17=Texas Flood
TTITLE18=Look At Little Sister
TTITLE19=Close To You
TTITLE20=The Sky Is Crying
EXTD=
EXTT0=
EXTT1=
EXTT2=
EXTT3=
EXTT4=
EXTT5=
EXTT6=
EXTT7=
EXTT8=
EXTT9=
EXTT10=
EXTT11=
EXTT12=
EXTT13=
EXTT14=
EXTT15=
EXTT16=
EXTT17=
EXTT18=
EXTT19=
EXTT20=
PLAYORDER=
